<svg width="160" height="45" viewBox="0 0 160 45" fill="none" xmlns="http://www.w3.org/2000/svg">
  <!-- Organic, blob-style "plato." logo in sage green -->
  
  <!-- p - organic blob shape -->
  <path d="M8 15c0-4 3-7 7-7h8c4 0 7 3 7 7v12c0 4-3 7-7 7h-4v8h-8V15zm7 0v12h4c2 0 4-2 4-4v-4c0-2-2-4-4-4h-4V15z" fill="#6B7C6B"/>
  
  <!-- l - organic blob shape -->
  <path d="M38 10h10v28h-10V10z" fill="#6B7C6B"/>
  
  <!-- a - organic blob shape -->
  <path d="M56 15c0-4 3-7 7-7h8c4 0 7 3 7 7v12c0 4-3 7-7 7h-4v8h-8V15zm7 0v12h4c2 0 4-2 4-4v-4c0-2-2-4-4-4h-4V15z" fill="#6B7C6B"/>
  
  <!-- t - organic blob shape -->
  <path d="M86 10h12v8h-8v20h-8V18h-8V10z" fill="#6B7C6C"/>
  
  <!-- o - organic blob shape -->
  <path d="M110 15c0-4 3-7 7-7h8c4 0 7 3 7 7v12c0 4-3 7-7 7h-8c-4 0-7-3-7-7V15zm7 0v12h8V15h-8z" fill="#6B7C6B"/>
  
  <!-- period - organic dot -->
  <ellipse cx="145" cy="32" rx="5" ry="4" fill="#6B7C6B"/>
</svg>
