<svg width="140" height="40" viewBox="0 0 140 40" fill="none" xmlns="http://www.w3.org/2000/svg">
  <!-- Organic blob-style letters in sage green -->
  
  <!-- p -->
  <path d="M8 12c0-3 2-5 5-5h6c3 0 5 2 5 5v10c0 3-2 5-5 5h-3v6h-8V12zm5 0v10h3c2 0 3-1 3-3v-4c0-2-1-3-3-3h-3z" fill="#6B7C6B" stroke="#6B7C6B" stroke-width="0.5"/>
  
  <!-- l -->
  <path d="M30 8h8v24h-8V8z" fill="#6B7C6B" stroke="#6B7C6B" stroke-width="0.5"/>
  
  <!-- a -->
  <path d="M46 12c0-3 2-5 5-5h6c3 0 5 2 5 5v10c0 3-2 5-5 5h-3v6h-8V12zm5 0v10h3c2 0 3-1 3-3v-4c0-2-1-3-3-3h-3z" fill="#6B7C6B" stroke="#6B7C6B" stroke-width="0.5"/>
  
  <!-- t -->
  <path d="M68 8h10v6h-6v18h-8V14h-6V8z" fill="#6B7C6B" stroke="#6B7C6B" stroke-width="0.5"/>
  
  <!-- o -->
  <path d="M90 12c0-3 2-5 5-5h6c3 0 5 2 5 5v10c0 3-2 5-5 5h-6c-3 0-5-2-5-5V12zm5 0v10h6V12h-6z" fill="#6B7C6B" stroke="#6B7C6B" stroke-width="0.5"/>
  
  <!-- period (organic dot) -->
  <ellipse cx="115" cy="28" rx="4" ry="3.5" fill="#6B7C6B"/>
</svg>